<svg xmlns="http://www.w3.org/2000/svg" xml:space="preserve" width="800" height="800" viewBox="0 0 59 59">
  <path d="M43.857 7.985c-.172.302-.484.515-.857.515-2.757 0-5 2.243-5 5 0 .552-.448 1-1 1s-1-.448-1-1c0-3.528 2.626-6.447 6.025-6.924C38.573 4.188 34.446 2.718 30 2.526v4.8c0 .552-.448 1-1 1s-1-.448-1-1v-4.8c-4.446.193-8.573 1.663-12.025 4.051C19.374 7.053 22 9.972 22 13.5c0 .552-.448 1-1 1s-1-.448-1-1c0-2.757-2.243-5-5-5-.373 0-.685-.213-.857-.515C9.171 12.212 6 18.502 6 25.5v16.936c5.594 5.536 14.044 9.064 23.5 9.064 8.909 0 16.924-3.132 22.5-8.125V25.5c0-6.998-3.171-13.288-8.143-17.515z" style="fill:#d1d4d1"/>
  <path d="M36 13.5c0 .552.448 1 1 1s1-.448 1-1c0-2.757 2.243-5 5-5 .373 0 .685-.213.857-.515-.587-.499-1.198-.97-1.832-1.409C38.626 7.053 36 9.972 36 13.5zM15 8.5c2.757 0 5 2.243 5 5 0 .552.448 1 1 1s1-.448 1-1c0-3.528-2.626-6.447-6.025-6.924-.635.439-1.246.91-1.832 1.409.172.302.484.515.857.515zM29 8.326c.552 0 1-.448 1-1v-4.8c-.332-.015-.665-.026-1-.026s-.668.011-1 .026v4.8c0 .552.448 1 1 1z" style="fill:#ecf0f1"/>
  <path d="M29.5 51.5c-8.318 0-15.855-2.731-21.357-7.157v6.628c4.969 4.917 12.474 6.529 20.873 6.529 7.913 0 15.032-1.26 19.984-5.695v-6.093C43.713 49.323 36.919 51.5 29.5 51.5z" style="fill:#e6e7e8"/>
  <path d="M3.658 23.529C2.675 23.694 2 24.624 2 25.622v2.489c0 .215-.174.389-.389.389-.89 0-1.611.721-1.611 1.611v3.168c0 .674.547 1.221 1.221 1.221h.389c.216 0 .39.174.39.389v2.489c0 .997.675 1.927 1.658 2.093C4.907 39.681 6 38.712 6 37.5v-12c0-1.212-1.093-2.181-2.342-1.971z" style="fill:#ecf0f1"/>
  <path d="M3 32.5c-.26 0-.52-.11-.71-.29-.18-.19-.29-.45-.29-.71 0-.26.11-.52.29-.71.38-.37 1.05-.37 1.42 0 .18.19.29.45.29.71 0 .26-.11.52-.29.71-.19.18-.45.29-.71.29z" style="fill:#a5a5a4"/>
  <path d="M54.342 39.471c.983-.165 1.658-1.095 1.658-2.093v-2.111c0-.424.343-.767.767-.767h.012c.674 0 1.221-.547 1.221-1.221v-3.558c0-.674-.547-1.221-1.221-1.221h-.012c-.424 0-.767-.343-.767-.767v-2.111c0-.997-.675-1.927-1.658-2.093-1.249-.21-2.342.759-2.342 1.971v12c0 1.212 1.093 2.181 2.342 1.971z" style="fill:#ecf0f1"/>
  <path d="M55 32.5c-.26 0-.52-.11-.71-.29-.18-.19-.29-.44-.29-.71s.11-.52.29-.71c.37-.37 1.05-.37 1.42 0 .18.19.29.45.29.71 0 .26-.11.52-.29.71-.19.18-.45.29-.71.29z" style="fill:#a5a5a4"/>
  <path d="M58 6.5h-1.586L54 4.086V2.5c0-.552-.448-1-1-1s-1 .448-1 1v1.586L49.586 6.5H48c-.552 0-1 .448-1 1s.448 1 1 1h1.586L52 10.914V12.5c0 .552.448 1 1 1s1-.448 1-1v-1.586L56.414 8.5H58c.552 0 1-.448 1-1s-.448-1-1-1z" style="fill:#f3d55b"/>
  <path d="M29 9.5c-12.65 0-23 8.92-23 18.378v12.663c5.594 4.14 14.044 7.959 23.5 7.959 8.909 0 16.924-3.524 22.5-7.256V27.878C52 18.42 41.65 9.5 29 9.5z" style="fill:#ecf0f1"/>
  <path d="M29 12.5c-12.65 0-23 7.548-23 15.551v10.714c5.594 3.503 14.044 6.735 23.5 6.735 8.909 0 16.924-2.982 22.5-6.14V28.051C52 20.048 41.65 12.5 29 12.5z" style="fill:#38454f"/>
  <path d="M15.095 15.853C9.578 18.802 6 23.347 6 28.051v10.714c2.393 1.498 5.311 2.944 8.604 4.112C15.489 38.546 16 33.453 16 28c0-4.345-.326-8.461-.905-12.147zM52 28.051c0-4.704-3.578-9.249-9.095-12.198C42.326 19.539 42 23.655 42 28c0 5.57.535 10.763 1.455 15.153 3.225-1.077 6.116-2.418 8.545-3.793V28.051z" style="fill:#475b68"/>
  <path d="M8.143 44.343v2.628c4.969 4.917 12.474 6.529 20.873 6.529 7.913 0 15.032-1.26 19.984-5.695v-2.093c-5.287 3.61-12.081 5.788-19.5 5.788-8.318 0-15.855-2.731-21.357-7.157z" style="fill:#fff"/>
  <path d="M26.999 21.698c-.508 0-.942-.385-.994-.9-.055-.549.346-1.04.896-1.095 1.341-.134 2.721-.203 4.1-.203.552 0 1 .448 1 1s-.448 1-1 1c-1.313 0-2.625.065-3.9.193-.035.003-.069.005-.102.005zM11 32.5c-.552 0-1-.448-1-1 0-5.028 4.284-9.002 11.754-10.904.534-.136 1.079.187 1.216.723.136.535-.188 1.08-.723 1.216C15.735 24.192 12 27.46 12 31.5c0 .552-.448 1-1 1z" style="fill:#546a79"/>
</svg>
