<svg xml:space="preserve" id="Layer_1" width="800" height="800" version="1.1" viewBox="0 0 512 512">
  <style>
    .st0{fill:#0a557f}.st1{fill:#cff1ff}.st2{fill:#4cc3f2}
  </style>
  <path d="M376 303.3h67.3v15H376z" class="st0" transform="rotate(-45 409.70321548 310.77212815)"/>
  <path d="M362.5 343h15v15h-15z" class="st0" transform="rotate(-45 369.98912595 350.48340403)"/>
  <path d="M216.8 42.7h67.3v15h-67.3z" class="st0" transform="rotate(-45 250.48466344 50.2297524)"/>
  <path d="M203.3 82.4h15v15h-15z" class="st0" transform="rotate(-45 210.7551578 89.94171364)"/>
  <path d="m57 254.4 72.1-72.2 87.5-19.1-105.3 105.3z" class="st1"/>
  <path d="M138.3 419.6 120 401.3l24.7-24.7-10.6-10.6-24.7 24.7-16.1-16.1 43.9-63.6 62.8 62.7z" class="st2"/>
  <path d="M175.5 245.2h24.8v155.3h-24.8z" class="st1" transform="rotate(-45 187.85921757 322.88681208)"/>
  <path d="m328.6 381.7-72.2 72.1-14-54.4 105.2-105.2z" class="st1"/>
  <path d="M262.2 358.4 152.3 248.6 318.4 82.5l49.6 49.6-36.1 36.1c-18.7-13.6-45-12-61.9 4.9-16.8 16.8-18.5 43.2-4.9 61.9l-31.3 31.3 10.6 10.6 31.3-31.3c18.7 13.6 45 11.9 61.9-4.9 16.8-16.8 18.5-43.2 4.9-61.9l36.1-36.1 49.6 49.6-166 166.1z" class="st2"/>
  <path d="M438.7 181.7 329.1 72c23.9-22 49.4-33.9 73.3-40l76.3 76.3c-6.1 24-17.9 49.5-40 73.4z" class="st1"/>
  <path d="M490.8 13.1c-1.6-.1-3.3-.3-5.1-.4-35.6-2.9-109.6-9.1-172.6 54l-76.9 76.9-114.6 25-93.8 93.8 81.9 21.2 16.7 16.7-52.5 76.2 24.9 24.9-14.3 14.3 10.6 10.6 14.3-14.3 27.4 27.4 73.9-54.9 16.6 16.6 21.2 81.9 93.8-93.8 25-114.6 76.9-76.9c63-63 56.9-137 54-172.6-.1-1.8-.3-3.5-.4-5.1l-.5-6.4-6.5-.5zM138.3 419.6 120 401.3l24.7-24.7-10.6-10.6-24.7 24.7-16.1-16.1 43.9-63.6 62.8 62.8-61.7 45.8zM57 254.4l72.2-72.2 87.5-19.1-105.4 105.3-54.3-14zM251.5 369 234 386.6 124.2 276.7l17.5-17.5L251.5 369zm77.1 12.7-72.1 72.1-14-54.4 105.3-105.3-19.2 87.6zm-66.4-23.3L152.3 248.6 318.4 82.5l49.6 49.6-36.1 36.1c-18.7-13.6-45-12-61.9 4.9-16.8 16.8-18.5 43.2-4.9 61.9l-31.3 31.3 10.6 10.6 31.3-31.3c18.7 13.6 45 11.9 61.9-4.9 16.8-16.8 18.5-43.2 4.9-61.9l36.1-36.1 49.6 49.6-166 166.1zM327 183.8c12.8 12.8 12.8 33.6 0 46.4-12.8 12.8-33.6 12.8-46.4 0-12.8-12.8-12.8-33.6 0-46.4 12.8-12.8 33.6-12.8 46.4 0zm151.7-75.5c-6.1 23.9-17.9 49.4-40 73.3L329.1 72c23.9-22 49.4-33.9 73.3-40l76.3 76.3zm3.6-17.6L420 28.5c25.4-3.9 47.9-2.2 63.2-.9 1.3 15.3 3 37.8-.9 63.1z" class="st0"/>
  <path d="M66.4 429.3h15v15h-15z" class="st0" transform="rotate(-45 73.91790832 436.79770237)"/>
  <path d="M84.9 452.1h42.2v15H84.9z" class="st0" transform="rotate(-45 106.01107954 459.59121086)"/>
  <path d="M67.7 482.9h15v15h-15z" class="st0" transform="matrix(.7072 -.7071 .7071 .7072 -324.727 196.7583)"/>
  <path d="M32.6 399.7h42.2v15H32.6z" class="st0" transform="rotate(-45 53.67401411 407.24822335)"/>
  <path d="M15.3 430.6h15v15h-15z" class="st0" transform="rotate(-45 22.84901452 438.09853819)"/>
  <path d="M215.6 280.1h15v15h-15z" style="fill:#fff" transform="rotate(-45 223.15237672 287.61848556)"/>
</svg>